<svg width="48" height="48" viewBox="0 0 48 48" fill="none" xmlns="http://www.w3.org/2000/svg">
<path d="M42.04 10H38V5.96C38 4.88 37.12 4 36.04 4H35.98C34.88 4 34 4.88 34 5.96V10H29.98C28.9 10 28.02 10.88 28 11.96V12.02C28 13.12 28.88 14 29.98 14H34V18.02C34 19.1 34.88 20 35.98 19.98H36.04C37.12 19.98 38 19.1 38 18.02V14H42.04C43.12 14 44 13.12 44 12.04V11.96C44 10.88 43.12 10 42.04 10ZM32 18.02V16H29.98C28.92 16 27.92 15.58 27.16 14.84C26.42 14.08 26 13.08 26 11.96C26 11.24 26.2 10.58 26.54 10H10C7.8 10 6 11.8 6 14V38C6 40.2 7.8 42 10 42H34C36.2 42 38 40.2 38 38V21.44C37.4 21.78 36.72 22 35.96 22C34.9095 21.9895 33.9054 21.5662 33.1644 20.8215C32.4235 20.0768 32.0052 19.0705 32 18.02ZM31.92 38H12C11.8143 38 11.6322 37.9483 11.4743 37.8507C11.3163 37.753 11.1886 37.6133 11.1056 37.4472C11.0225 37.2811 10.9874 37.0952 11.004 36.9102C11.0207 36.7252 11.0886 36.5486 11.2 36.4L15.16 31.14C15.58 30.58 16.4 30.62 16.8 31.18L20 36L25.22 29.04C25.62 28.52 26.4 28.5 26.8 29.02L32.7 36.38C33.22 37.04 32.76 38 31.92 38Z" fill="#2F2F2F"/>
</svg>
