<svg width="32" height="33" viewBox="0 0 32 33" fill="none" xmlns="http://www.w3.org/2000/svg">
<path d="M0.901009 11.2325C0.902943 11.2271 0.904642 11.2219 0.906595 11.2165C0.910207 11.2061 0.913703 11.1958 0.917335 11.1855C0.878083 11.2971 0.836057 11.407 0.799129 11.52C0.797918 11.5237 0.793544 11.5365 0.789189 11.5501C0.788681 11.5517 0.789814 11.5511 0.790634 11.5505C0.825473 11.4436 0.864003 11.3384 0.901009 11.2325Z" fill="url(#paint0_linear_1_8315)"/>
<path d="M18.9419 32.2198C18.8258 32.2415 18.7097 32.2655 18.5938 32.2846C18.71 32.2656 18.8258 32.2414 18.9419 32.2198Z" fill="url(#paint1_linear_1_8315)"/>
<path d="M17.4979 32.4225C17.4292 32.4289 17.3606 32.4354 17.292 32.4409C17.3606 32.436 17.4292 32.4285 17.4979 32.4225Z" fill="url(#paint2_linear_1_8315)"/>
<path d="M22.7552 9.25007L15.9443 5.32151C13.3803 3.84264 10.2015 3.48267 7.22309 4.57814C0.596122 7.01486 -1.31393 15.2821 0.850891 21.6738C3.45362 29.3583 11.5834 33.8284 19.325 32.1478C18.8801 32.2289 18.5142 32.3058 17.8112 32.3842C11.6986 33.0661 6.34816 28.2848 6.34816 22.1276C6.34816 20.843 6.34814 17.3658 6.34814 14.2925C6.34814 12.8096 7.14 11.4394 8.42545 10.698C8.59993 10.5973 8.78028 10.5116 8.96426 10.4382C10.1357 9.97141 11.4691 10.0572 12.58 10.698L12.6908 10.7619L21.585 15.892C22.2089 16.2519 22.1522 16.606 21.447 16.7535C21.7102 16.667 22.801 16.6408 23.7237 15.6572C25.5403 13.7209 25.0602 10.5796 22.7552 9.25007Z" fill="url(#paint3_linear_1_8315)"/>
<path d="M29.1172 7.33159C29.1361 7.3586 29.1555 7.38541 29.1742 7.41252C29.1557 7.38519 29.1359 7.35877 29.1172 7.33159Z" fill="url(#paint4_linear_1_8315)"/>
<path d="M28.166 6.10642C28.243 6.1961 28.3219 6.28466 28.3966 6.37562C28.3219 6.28439 28.2429 6.19616 28.166 6.10642Z" fill="url(#paint5_linear_1_8315)"/>
<path d="M1.31348 10.1641C1.33664 10.1104 1.36251 10.0586 1.38622 10.0053C1.35355 10.0775 1.35765 10.0618 1.31348 10.1641Z" fill="url(#paint6_linear_1_8315)"/>
<path d="M15.9441 5.32151L22.755 9.25007C25.0647 10.5823 25.5368 13.7244 23.7235 15.6572C22.8001 16.6415 21.7063 16.6682 21.4468 16.7535C21.4469 16.7535 21.4469 16.7535 21.447 16.7535L17.6826 17.5406C16.1386 17.8635 15.7606 19.0078 13.5065 21.3324C13.0263 21.8692 12.6906 21.7412 12.6906 21.0212C12.6906 21.0694 12.6906 22.4068 12.6906 22.3722C12.6906 25.5573 16.1526 27.5644 18.9225 25.9667C20.5683 25.0174 23.954 23.0646 25.7142 22.0492C28.2585 20.5817 30.0604 18.1047 30.6636 15.2321C32.1449 8.17781 25.9092 2.1621 19.1051 0.803157C11.8231 -0.651251 4.39494 3.24129 1.38574 10.0053C3.89102 4.46604 10.6518 2.2689 15.9441 5.32151Z" fill="url(#paint7_linear_1_8315)"/>
<path d="M1.31318 10.1641C1.21599 10.3893 1.12343 10.6174 1.03613 10.8487C1.12348 10.618 1.21564 10.3896 1.31318 10.1641Z" fill="url(#paint8_linear_1_8315)"/>
<path d="M27.9119 5.81145C28.2052 6.15649 28.4534 6.43281 28.8737 7.00298C30.6159 9.36629 31.2668 12.3595 30.6636 15.2321C30.0604 18.1047 28.2585 20.5817 25.7142 22.0492C23.9865 23.0458 20.5508 25.0275 18.9225 25.9667C16.153 27.5642 12.6906 25.5577 12.6906 22.3722C12.6906 18.5279 12.6906 15.6841 12.6906 11.5707C12.6906 10.9672 12.8684 10.8646 13.3913 11.166L12.6906 10.7619L12.5798 10.698C11.4689 10.0572 10.1355 9.97142 8.96408 10.4382C8.7801 10.5116 8.59976 10.5973 8.42527 10.698C7.13982 11.4394 6.34796 12.8096 6.34796 14.2925L6.34798 21.3359C6.40336 21.6258 5.80659 26.2607 9.78266 29.8183C15.1236 34.5972 23.4487 32.2863 28.0696 27.0323C33.4114 20.9588 33.2587 11.7028 27.9119 5.81145Z" fill="url(#paint9_linear_1_8315)"/>
<defs>
<linearGradient id="paint0_linear_1_8315" x1="0.79741" y1="11.482" x2="0.910188" y2="11.2547" gradientUnits="userSpaceOnUse">
<stop stop-color="white"/>
<stop offset="1" stop-color="white" stop-opacity="0.3"/>
</linearGradient>
<linearGradient id="paint1_linear_1_8315" x1="18.7367" y1="32.315" x2="18.799" y2="32.1892" gradientUnits="userSpaceOnUse">
<stop stop-color="white"/>
<stop offset="1" stop-color="white" stop-opacity="0.3"/>
</linearGradient>
<linearGradient id="paint2_linear_1_8315" x1="17.3791" y1="32.4636" x2="17.4108" y2="32.3997" gradientUnits="userSpaceOnUse">
<stop stop-color="white"/>
<stop offset="1" stop-color="white" stop-opacity="0.3"/>
</linearGradient>
<linearGradient id="paint3_linear_1_8315" x1="1.07871" y1="23.2777" x2="23.4831" y2="14.2437" gradientUnits="userSpaceOnUse">
<stop stop-color="white"/>
<stop offset="1" stop-color="white" stop-opacity="0.3"/>
</linearGradient>
<linearGradient id="paint4_linear_1_8315" x1="30.2873" y1="4.89391" x2="20.4101" y2="26.3348" gradientUnits="userSpaceOnUse">
<stop stop-color="white"/>
<stop offset="1" stop-color="white" stop-opacity="0.3"/>
</linearGradient>
<linearGradient id="paint5_linear_1_8315" x1="29.1446" y1="4.36707" x2="19.2674" y2="25.8079" gradientUnits="userSpaceOnUse">
<stop stop-color="white"/>
<stop offset="1" stop-color="white" stop-opacity="0.3"/>
</linearGradient>
<linearGradient id="paint6_linear_1_8315" x1="8.38826" y1="-5.19464" x2="-1.48881" y2="16.246" gradientUnits="userSpaceOnUse">
<stop stop-color="white"/>
<stop offset="1" stop-color="white" stop-opacity="0.3"/>
</linearGradient>
<linearGradient id="paint7_linear_1_8315" x1="21.5741" y1="0.879846" x2="11.6969" y2="22.3206" gradientUnits="userSpaceOnUse">
<stop stop-color="white"/>
<stop offset="1" stop-color="white" stop-opacity="0.3"/>
</linearGradient>
<linearGradient id="paint8_linear_1_8315" x1="8.40431" y1="-5.18726" x2="-1.47292" y2="16.2535" gradientUnits="userSpaceOnUse">
<stop stop-color="white"/>
<stop offset="1" stop-color="white" stop-opacity="0.3"/>
</linearGradient>
<linearGradient id="paint9_linear_1_8315" x1="29.148" y1="26.104" x2="10.1163" y2="10.8064" gradientUnits="userSpaceOnUse">
<stop stop-color="white"/>
<stop offset="1" stop-color="white" stop-opacity="0.3"/>
</linearGradient>
</defs>
</svg>
