<svg width="223" height="160" viewBox="0 0 223 160" fill="none" xmlns="http://www.w3.org/2000/svg">
<g clip-path="url(#clip0_228_2445)">
<mask id="mask0_228_2445" style="mask-type:luminance" maskUnits="userSpaceOnUse" x="0" y="0" width="223" height="160">
<path d="M222.067 0H0.636719V159.812H222.067V0Z" fill="white"/>
</mask>
<g mask="url(#mask0_228_2445)">
<path d="M154.367 120.574C159.533 111.755 159.081 111.362 164.247 102.542C167.864 96.3679 171.88 89.8323 179.214 86.3878C183.171 84.5295 188.628 83.8782 192.127 86.292C200.291 91.9228 194.729 106.823 186.901 122.279C174.565 122.437 165.405 121.249 154.367 120.576V120.574Z" fill="#55D087" stroke="#010101" stroke-width="1.5" stroke-linecap="round" stroke-linejoin="round"/>
<path d="M186.639 89.1809C182.37 102.662 178.801 108.564 172.598 121.542" stroke="#010101" stroke-width="1.5" stroke-linecap="round" stroke-linejoin="round"/>
<path d="M183.871 122.242C192.762 109.039 197.234 100.007 209.626 96.4914C212.055 95.8027 214.857 95.5192 217.15 96.4841C219.744 97.5757 221.779 100.004 221.417 102.333C220.032 111.262 214.598 116.104 211.273 122.507C200.153 122.363 192.281 122.35 183.871 122.242Z" fill="#55D087" stroke="#010101" stroke-width="1.5" stroke-linecap="round" stroke-linejoin="round"/>
<path d="M214.162 97.9086C208.018 108.421 206.565 111.838 198.637 121.542" stroke="#010101" stroke-width="1.5" stroke-linecap="round" stroke-linejoin="round"/>
<path d="M40.8392 48.4873C39.6721 44.5515 38.5236 40.2152 40.1797 36.4597C40.9513 34.7111 42.2727 33.2621 43.6932 31.9821C50.4034 25.9354 111.44 5.27594 121.917 2.50964C127.423 1.05584 132.683 3.09198 136.019 9.85583C142.592 23.1846 163.519 91.2081 170.74 121.572C171.259 123.757 171.765 126.103 170.962 128.201C170.2 130.191 168.392 131.582 166.554 132.659C163.619 134.38 160.412 135.574 157.201 136.697C144.212 141.243 103.156 156.23 89.6181 158.7C87.1238 159.155 84.4851 159.563 82.1062 158.686C78.3506 157.301 76.425 153.234 74.8981 149.534C65.5937 126.973 40.5111 48.0008 40.8384 48.4865L40.8392 48.4873Z" fill="#585858" stroke="#010101" stroke-width="1.5" stroke-linecap="round" stroke-linejoin="round"/>
<path d="M48.8829 51.5135C47.905 48.1154 46.5617 43.6434 47.9659 40.3955C48.6206 38.8825 49.7389 37.6284 50.9402 36.5206C56.6157 31.2837 111.037 12.1007 119.886 9.69096C122.688 8.92751 126.481 7.77587 130.698 14.7557C136.721 24.7253 156.862 92.4166 162.814 118.264C163.248 120.152 163.671 122.177 162.989 123.992C162.342 125.714 160.813 126.918 159.259 127.853C156.78 129.344 154.07 130.383 151.359 131.359C140.386 135.312 102.84 149.555 91.4081 151.715C89.3013 152.113 87.0743 152.471 85.0674 151.717C81.8998 150.527 80.2819 147.018 79.0003 143.823C71.1887 124.346 48.6076 51.0944 48.8829 51.5135Z" fill="white" stroke="#010101" stroke-width="1.5" stroke-linecap="round" stroke-linejoin="round"/>
<path d="M31.3203 0.609131C33.579 5.96791 35.8377 11.3259 38.0964 16.6847" stroke="#010101" stroke-width="1.5" stroke-linecap="round" stroke-linejoin="round"/>
<path d="M1.24609 28.0292C8.373 30.1425 15.2944 32.9462 21.8837 36.3866" stroke="#010101" stroke-width="1.5" stroke-linecap="round" stroke-linejoin="round"/>
<path d="M6.19531 64.8658C12.9738 62.6453 19.7523 60.4256 26.5299 58.2051C26.0694 58.5048 25.6081 58.8045 25.1476 59.105" stroke="#010101" stroke-width="1.5" stroke-linecap="round" stroke-linejoin="round"/>
<path d="M64.7889 14.3845C63.2676 15.1074 62.4693 16.7975 62.9095 18.4227C63.9832 22.3837 65.5296 27.3884 66.587 30.551C66.7844 31.1423 67.0061 31.7628 67.4837 32.1632C68.3072 32.8544 69.5336 32.6383 70.5773 32.3768C82.3207 29.4383 93.8578 25.6796 105.078 21.137C105.631 20.9129 106.222 20.6538 106.519 20.1364C106.797 19.6507 106.748 19.0513 106.678 18.4966C106.127 14.1295 104.758 9.86637 102.663 5.99549C102.121 4.99407 101.479 3.96909 100.467 3.44686C99.1427 2.76381 97.5435 3.1098 96.1043 3.49722C85.7376 6.29112 75.2157 9.42941 64.7881 14.3837L64.7889 14.3845Z" fill="#585858" stroke="#010101" stroke-width="1.5" stroke-linecap="round" stroke-linejoin="round"/>
<path d="M88 50.5316C100.05 45.4838 112.101 40.4369 124.151 35.3892C124.331 35.3137 124.543 35.1829 124.515 34.9904C124.486 34.798 124.092 34.9466 124.253 35.0562" stroke="#010101" stroke-width="1.5" stroke-linecap="round" stroke-linejoin="round"/>
<path d="M97.2129 79.9887C109.997 75.7767 122.622 71.0831 135.052 65.92" stroke="#010101" stroke-width="1.5" stroke-linecap="round" stroke-linejoin="round"/>
<path d="M131.934 74.4235C133.494 75.312 135.026 76.2484 136.526 77.2336L144.808 71.6157C139.713 69.1849 136.966 66.7329 132.133 63.6417C132.183 66.4576 132.063 70.8328 131.934 74.4235Z" fill="white" stroke="#010101" stroke-width="1.5" stroke-linecap="round" stroke-linejoin="round"/>
<path d="M167.848 32.4247C169.369 29.6803 170.855 26.9465 172.242 24.2452C170.113 22.5145 163.517 17.8095 160.806 16.6854C158.978 19.2755 157.178 21.9281 155.393 24.605C157.326 25.8168 159.78 27.3616 162.236 28.9072L167.848 32.4247Z" fill="#010101" stroke="#010101" stroke-width="1.5" stroke-linecap="round" stroke-linejoin="round"/>
<path d="M155.386 24.6131C147.001 37.1857 139.117 50.5794 132.133 63.6434C135.827 65.8046 144.808 71.6174 144.808 71.6174C152.039 59.0667 160.559 45.5772 167.843 32.4336C166.152 31.3713 164.196 30.1408 162.236 28.9071L155.386 24.6131Z" fill="#FF8B37" stroke="#010101" stroke-width="1.5" stroke-linecap="round" stroke-linejoin="round"/>
<path d="M144.808 71.6167C144.808 71.6167 135.827 65.8039 132.133 63.6426C136.966 66.7338 139.713 69.1858 144.808 71.6167Z" fill="#FF8B37" stroke="#010101" stroke-width="1.5" stroke-linecap="round" stroke-linejoin="round"/>
<path d="M162.234 28.9064C164.194 30.1401 166.151 31.3713 167.842 32.4329C167.843 32.4296 167.845 32.4272 167.847 32.4239L162.234 28.9064Z" fill="#FF8B37" stroke="#010101" stroke-width="1.5" stroke-linecap="round" stroke-linejoin="round"/>
<path d="M155.392 24.6042C155.392 24.6042 155.388 24.6099 155.387 24.6131L162.236 28.9063C159.78 27.3607 157.326 25.816 155.392 24.6042Z" fill="#FF8B37" stroke="#010101" stroke-width="1.5" stroke-linecap="round" stroke-linejoin="round"/>
<path d="M131.682 80.5214L136.526 77.2345C135.026 76.2485 133.494 75.3121 131.933 74.4244C131.812 77.8242 131.682 80.5214 131.682 80.5214Z" fill="#010101" stroke="#010101" stroke-width="1.5" stroke-linecap="round" stroke-linejoin="round"/>
<path d="M110.953 110.039C122.561 105.291 134.358 101.004 146.306 97.1923" stroke="#010101" stroke-width="1.5" stroke-linecap="round" stroke-linejoin="round"/>
<path d="M93.8403 108.958C93.746 108.717 93.4699 108.605 93.2352 108.712C91.3858 109.558 81.396 113.494 81.1808 114.029C81.0061 114.463 83.4321 121.437 85.8776 126.165C85.9808 126.365 86.2017 126.474 86.4202 126.422C90.65 125.416 97.8037 122.246 98.7637 121.816C98.8263 121.788 98.8522 121.718 98.8271 121.654L93.8403 108.957V108.958Z" fill="#E3E3FF" stroke="#010101" stroke-width="1.5" stroke-linecap="round" stroke-linejoin="round"/>
<path d="M86.125 116.835L92.7719 120.419C92.7719 120.419 96.2692 111.053 98.8722 105.891" stroke="#010101" stroke-width="1.5" stroke-linecap="round" stroke-linejoin="round"/>
<path d="M81.1723 79.5956C81.0781 79.3552 80.8019 79.2431 80.5672 79.3503C78.7179 80.1958 68.728 84.1324 68.5128 84.6668C68.3382 85.1013 70.7642 92.0747 73.2097 96.8032C73.3128 97.003 73.5337 97.1119 73.7522 97.0599C77.982 96.0544 85.1357 92.8836 86.0957 92.454C86.1583 92.4264 86.1843 92.3557 86.1591 92.2924L81.1723 79.5956Z" fill="#E3E3FF" stroke="#010101" stroke-width="1.5" stroke-linecap="round" stroke-linejoin="round"/>
<path d="M73.4551 87.4737L80.102 91.0578C80.102 91.0578 83.5992 81.6918 86.2023 76.5296" stroke="#010101" stroke-width="1.5" stroke-linecap="round" stroke-linejoin="round"/>
<path d="M70.6664 50.2343C70.5721 49.9939 70.296 49.8818 70.0613 49.9891C68.2119 50.8345 58.2222 54.7712 58.0069 55.3056C57.8323 55.7401 60.2582 62.7135 62.7037 67.4421C62.8069 67.6418 63.0278 67.7506 63.2462 67.6987C67.4761 66.6931 74.6299 63.5225 75.5899 63.0928C75.6524 63.0652 75.6783 62.9945 75.6532 62.9312L70.6664 50.2335V50.2343Z" fill="#E3E3FF" stroke="#010101" stroke-width="1.5" stroke-linecap="round" stroke-linejoin="round"/>
<path d="M62.9492 58.1116L69.5961 61.6957C69.5961 61.6957 73.0934 52.3297 75.6964 47.1675" stroke="#010101" stroke-width="1.5" stroke-linecap="round" stroke-linejoin="round"/>
</g>
</g>
<defs>
<clipPath id="clip0_228_2445">
<rect width="221.726" height="160" fill="white" transform="translate(0.636719)"/>
</clipPath>
</defs>
</svg>
